# xmcd CD database file
#
# Track frame offsets:
#	150
#	18856
#	39694
#	61898
#	77749
#	100971
#	125204
#	153590
#	178047
#	196144
#	219990
#	239803
#	262299
#	278292
#	301585
#
# Disc length: 4310 seconds
#
# Revision: 1
# Processed by: cddbd v1.5PL3 Copyright (c) Steve Scherf et al.
# Submitted via: CDex 1.51
#
DISCID=cf10d40f
DTITLE=Chicago Six - 21st Century Unlimited
DYEAR=2000
DGENRE=Jazz
TTITLE0=Pie Eye's Blues 01
TTITLE1=Sediment All Over You 02
TTITLE2=Marching Saints 03
TTITLE3=Prelude toa Kiss 04
TTITLE4=Cotton Fields 05
TTITLE5=Water From an Ancoent Well 06
TTITLE6=Shiny Stockings 07
TTITLE7=Georgia on My Mind 08
TTITLE8=Just a Closer Walk With Thee 09
TTITLE9=Kansas City Blues 10
TTITLE10=Lady Be Good 11
TTITLE11=Perdido 12
TTITLE12=Nuagws13
TTITLE13=Basin Street Blues 14
TTITLE14=You Are My Sunshine 15
EXTD=YEAR: 2000
EXTT0=
EXTT1=
EXTT2=
EXTT3=
EXTT4=
EXTT5=
EXTT6=
EXTT7=
EXTT8=
EXTT9=
EXTT10=
EXTT11=
EXTT12=
EXTT13=
EXTT14=
PLAYORDER=
